<svg width="442" height="430" viewBox="0 0 442 430" fill="none" xmlns="http://www.w3.org/2000/svg">
<path d="M333.238 264.191H234.238V165.191C285.898 168.831 329.188 212.791 333.238 264.191ZM300.238 219.191H255.238V229.191H299.238L300.238 219.191Z" fill="#7BA21B"/>
<path d="M333.238 283.191C329.278 334.561 286.258 379.341 234.238 382.191V283.191H333.238ZM255.238 307.191V317.191H293.238V307.191H255.238ZM255.238 325.191V335.191H293.238V325.191H255.238Z" fill="#7BA21B"/>
<path d="M214.238 283.191V382.191C162.318 379.331 119.038 334.521 115.238 283.191H214.238ZM192.918 306.491C191.858 305.271 188.778 304.151 187.738 302.211L175.738 313.231L163.738 302.211L157.478 309.711L168.228 321.691C162.138 329.371 151.118 332.061 163.748 340.171L175.748 329.151L187.748 340.171L194.008 332.671L183.258 320.691C185.398 317.061 196.788 310.951 192.918 306.491Z" fill="#7BA21B"/>
<path d="M214.238 165.191V264.191H115.238C119.408 212.781 162.558 168.811 214.238 165.191ZM179.238 202.191H169.238V219.191H152.238V229.191H169.238V246.191H179.238V229.191H196.238V219.191H180.738L179.238 217.691V202.191Z" fill="#7BA21B"/>
<path d="M107.918 171.491C107.458 170.931 98.9284 164.831 98.3584 164.691C95.9184 164.121 87.1484 167.691 83.6284 168.091C68.0784 169.831 55.1584 162.911 43.7084 153.221L0.688373 108.251C-2.06163 99.9113 3.75837 93.3413 12.2684 95.6613C22.8384 98.5413 39.8384 124.881 50.3284 132.601C59.7484 139.531 68.9184 136.331 63.6984 124.231L24.9984 84.9313C20.7384 75.4313 30.8284 66.6913 39.2984 72.6313C51.7484 81.3513 65.1084 102.991 78.2784 110.641C84.0484 113.991 90.1784 111.071 90.1684 104.681C90.1584 98.3413 61.9584 76.1113 56.2084 69.7113C53.5284 66.7313 48.2384 60.6513 48.1984 56.7013C48.1084 48.7313 57.8884 42.9113 64.2784 48.6413C82.2784 70.6713 123.358 93.8513 122.288 125.711C122.138 130.131 119.438 136.231 120.658 140.221C121.388 142.591 132.628 151.851 134.738 151.851C152.648 139.191 172.608 130.131 194.228 125.671C202.548 123.951 210.938 123.431 219.228 121.671C230.058 95.7713 239.458 69.1413 253.068 44.5113C258.008 35.5613 272.568 10.7713 280.288 5.73127C292.248 -2.07873 307.628 8.12128 304.798 22.2413C303.168 30.3513 286.128 48.7513 280.428 56.8613C270.158 71.4813 255.578 94.3913 249.488 110.921C248.568 113.411 244.808 123.151 247.198 124.731C248.008 125.261 262.968 127.751 266.248 128.681C287.448 134.741 303.628 144.731 321.568 157.021C325.868 154.131 338.208 143.751 338.198 138.831C338.178 132.311 335.618 125.741 336.218 117.641C340.388 61.3313 428.688 34.4713 440.808 93.1213C448.598 130.801 412.838 169.561 374.758 166.171C370.278 165.771 365.618 162.981 360.948 164.391C358.918 165.011 345.248 179.421 345.258 181.681C352.518 194.591 360.748 206.981 365.998 220.931C383.958 268.651 375.568 322.371 346.548 363.681C346.548 368.011 380.818 395.561 385.468 404.471C392.018 417.041 383.458 431.891 368.988 428.951C357.658 426.651 329.168 388.481 323.768 388.481C284.248 420.231 234.828 433.361 185.048 419.901C165.698 414.671 148.538 405.161 131.758 394.511C130.288 394.721 129.338 395.821 128.238 396.661C118.718 403.991 107.588 420.731 97.9684 426.381C83.8184 434.701 67.9384 421.081 74.6984 406.111L107.238 371.691C101.218 360.201 92.9084 350.361 87.3884 338.531C63.0084 286.181 70.4984 230.781 102.418 183.841C104.778 180.361 111.748 176.071 107.928 171.471L107.918 171.491ZM350.358 273.861C350.358 204.211 293.898 147.751 224.248 147.751C154.598 147.751 98.1384 204.211 98.1384 273.861C98.1384 343.511 154.598 399.971 224.248 399.971C293.898 399.971 350.358 343.511 350.358 273.861Z" fill="#7BA21B"/>
<path d="M216.248 97.1913C208.538 68.2813 188.418 42.8513 161.718 29.2113C158.748 29.0213 160.958 30.3513 161.888 31.0513C176.998 42.4113 187.108 52.4613 197.258 68.6813C201.608 75.6213 211.668 92.7013 209.298 100.621C195.278 103.691 177.598 102.831 163.988 97.9513C132.248 86.5813 135.818 51.5713 122.408 26.5313C116.548 15.5813 108.198 10.2913 99.2383 2.21133C120.828 -1.68867 143.988 -0.418666 164.998 5.93133C198.268 15.9913 230.118 44.5313 222.958 82.4213C222.628 84.1613 219.048 99.2913 216.238 97.1913H216.248Z" fill="#7BA21B"/>
</svg>
